<svg xmlns="http://www.w3.org/2000/svg" xmlns:xlink="http://www.w3.org/1999/xlink" width="250" zoomAndPan="magnify" viewBox="0 0 187.5 74.999997" height="100" preserveAspectRatio="xMidYMid meet" version="1.0"><defs><g/><clipPath id="980473f598"><path d="M 1.054688 6.898438 L 51 6.898438 L 51 63 L 1.054688 63 Z M 1.054688 6.898438 " clip-rule="nonzero"/></clipPath><clipPath id="9f7430bb54"><rect x="0" width="133" y="0" height="45"/></clipPath></defs><g clip-path="url(#980473f598)"><path fill="#545454" d="M 22.519531 59.5 C 22.515625 59.550781 22.503906 59.597656 22.503906 59.648438 C 22.503906 61.566406 24.0625 63.125 25.980469 63.125 C 27.898438 63.125 29.457031 61.566406 29.457031 59.648438 C 29.457031 59.066406 29.300781 58.527344 29.046875 58.042969 L 44.394531 49.1875 C 45.011719 50.160156 46.089844 50.808594 47.324219 50.808594 C 49.242188 50.808594 50.800781 49.25 50.800781 47.332031 C 50.800781 45.996094 50.035156 44.847656 48.925781 44.265625 L 48.925781 25.761719 C 50.035156 25.179688 50.800781 24.027344 50.800781 22.691406 C 50.800781 20.773438 49.242188 19.214844 47.324219 19.214844 C 46.089844 19.214844 45.007812 19.871094 44.390625 20.84375 L 29.042969 11.988281 C 29.300781 11.503906 29.457031 10.960938 29.457031 10.375 C 29.457031 8.460938 27.898438 6.898438 25.980469 6.898438 C 24.066406 6.898438 22.503906 8.457031 22.503906 10.375 C 22.503906 10.429688 22.515625 10.476562 22.519531 10.527344 L 6.503906 19.769531 C 5.964844 19.421875 5.324219 19.214844 4.636719 19.214844 C 2.71875 19.214844 1.160156 20.773438 1.160156 22.691406 C 1.160156 24.027344 1.925781 25.179688 3.035156 25.761719 L 3.035156 44.265625 C 1.925781 44.847656 1.160156 45.996094 1.160156 47.332031 C 1.160156 49.25 2.71875 50.808594 4.636719 50.808594 C 5.324219 50.808594 5.960938 50.601562 6.503906 50.257812 Z M 24.117188 13.300781 C 24.621094 13.621094 25.210938 13.816406 25.847656 13.839844 L 25.847656 22.464844 L 17.046875 17.382812 Z M 17.054688 52.648438 L 25.847656 47.570312 L 25.847656 56.183594 C 25.210938 56.210938 24.621094 56.402344 24.117188 56.722656 Z M 15.441406 51.71875 L 15.441406 41.410156 L 25.714844 47.34375 L 16.785156 52.496094 L 15.441406 51.722656 Z M 6.238281 34.25 L 15.175781 29.089844 L 15.175781 40.949219 L 6.238281 35.789062 Z M 22.921875 36.628906 L 15.441406 40.949219 L 15.441406 29.085938 L 22.917969 33.402344 C 22.664062 33.886719 22.503906 34.429688 22.503906 35.011719 C 22.503906 35.597656 22.664062 36.144531 22.921875 36.628906 Z M 23.050781 36.867188 C 23.644531 37.800781 24.671875 38.429688 25.847656 38.476562 L 25.847656 47.109375 L 15.578125 41.179688 Z M 29.441406 34.863281 L 36.519531 30.777344 L 36.519531 40.949219 L 29.039062 36.628906 C 29.296875 36.144531 29.457031 35.597656 29.457031 35.011719 C 29.457031 34.960938 29.445312 34.914062 29.441406 34.863281 Z M 23.042969 33.167969 L 15.578125 28.855469 L 25.847656 22.925781 L 25.847656 31.550781 C 24.664062 31.59375 23.636719 32.226562 23.042969 33.167969 Z M 8.101562 22.542969 L 15.175781 18.460938 L 15.175781 28.625 L 7.699219 24.304688 C 7.957031 23.820312 8.113281 23.277344 8.113281 22.691406 C 8.113281 22.640625 8.101562 22.59375 8.101562 22.542969 Z M 7.570312 24.539062 L 15.042969 28.855469 L 6.238281 33.941406 L 6.238281 25.761719 C 6.78125 25.476562 7.242188 25.058594 7.570312 24.539062 Z M 15.042969 41.179688 L 7.574219 45.492188 C 7.25 44.972656 6.785156 44.550781 6.238281 44.265625 L 6.238281 36.097656 Z M 7.703125 45.726562 L 15.175781 41.414062 L 15.175781 51.566406 L 8.097656 47.484375 C 8.101562 47.433594 8.113281 47.386719 8.113281 47.335938 C 8.113281 46.753906 7.957031 46.210938 7.703125 45.730469 Z M 26.113281 38.476562 C 27.292969 38.429688 28.320312 37.800781 28.914062 36.867188 L 36.386719 41.179688 L 26.117188 47.109375 L 26.117188 38.476562 Z M 36.785156 30.625 L 38.117188 29.855469 L 45.722656 34.25 L 45.722656 35.789062 L 36.785156 40.949219 Z M 45.460938 25.617188 C 45.546875 25.671875 45.636719 25.714844 45.722656 25.761719 L 45.722656 33.941406 L 38.382812 29.703125 Z M 27.847656 32.089844 C 27.339844 31.765625 26.75 31.574219 26.113281 31.550781 L 26.113281 22.925781 L 34.914062 28.007812 Z M 25.714844 22.695312 L 15.441406 28.625 L 15.441406 18.304688 L 16.777344 17.535156 L 25.710938 22.695312 Z M 36.519531 41.410156 L 36.519531 53.269531 L 26.25 47.339844 Z M 45.722656 36.097656 L 45.722656 44.265625 C 45.175781 44.550781 44.714844 44.972656 44.386719 45.492188 L 36.917969 41.179688 Z M 35.183594 27.855469 L 26.246094 22.695312 L 36.519531 16.765625 L 36.519531 27.082031 Z M 26.113281 56.1875 L 26.113281 47.574219 L 36.386719 53.5 L 28.917969 57.808594 C 28.324219 56.867188 27.296875 56.230469 26.113281 56.1875 Z M 36.785156 53.269531 L 36.785156 41.410156 L 44.257812 45.726562 C 44.003906 46.210938 43.847656 46.75 43.847656 47.332031 C 43.847656 47.921875 44.007812 48.464844 44.265625 48.953125 Z M 43.863281 22.84375 L 36.785156 26.925781 L 36.785156 16.765625 L 44.261719 21.078125 C 44.003906 21.5625 43.847656 22.105469 43.847656 22.691406 C 43.847656 22.742188 43.859375 22.792969 43.859375 22.84375 Z M 36.386719 16.535156 L 26.113281 22.464844 L 26.113281 13.839844 C 27.296875 13.792969 28.320312 13.164062 28.914062 12.222656 Z M 36.386719 16.535156 " fill-opacity="1" fill-rule="nonzero"/></g><g transform="matrix(1, 0, 0, 1, 50, 12)"><g clip-path="url(#9f7430bb54)"><g fill="#545454" fill-opacity="1"><g transform="translate(1.30827, 34.279884)"><g><path d="M 18.65625 -8.5 L 18.65625 -7.125 L 4.359375 -7.125 C 4.609375 -5.726562 5.285156 -4.582031 6.390625 -3.6875 C 7.523438 -2.78125 8.78125 -2.328125 10.15625 -2.328125 C 11.09375 -2.328125 11.992188 -2.546875 12.859375 -2.984375 C 13.691406 -3.410156 14.390625 -4.003906 14.953125 -4.765625 L 17.921875 -4.765625 C 17.222656 -3.210938 16.1875 -1.992188 14.8125 -1.109375 C 13.40625 -0.191406 11.988281 0.265625 10.5625 0.265625 C 9.113281 0.265625 7.882812 0.0390625 6.875 -0.40625 C 5.832031 -0.851562 4.929688 -1.457031 4.171875 -2.21875 C 2.492188 -3.84375 1.65625 -5.835938 1.65625 -8.203125 C 1.65625 -10.535156 2.492188 -12.539062 4.171875 -14.21875 C 5.828125 -15.875 7.820312 -16.703125 10.15625 -16.703125 C 12.425781 -16.703125 14.410156 -15.898438 16.109375 -14.296875 C 17.804688 -12.671875 18.65625 -10.738281 18.65625 -8.5 Z M 15.921875 -9.34375 C 15.628906 -10.71875 14.9375 -11.863281 13.84375 -12.78125 C 12.757812 -13.664062 11.53125 -14.109375 10.15625 -14.109375 C 8.039062 -14.109375 6.378906 -13.160156 5.171875 -11.265625 C 4.796875 -10.671875 4.535156 -10.03125 4.390625 -9.34375 Z M 15.921875 -9.34375 "/></g></g></g><g fill="#545454" fill-opacity="1"><g transform="translate(18.112849, 34.279884)"><g><path d="M 2.328125 0 L 15.328125 -13.109375 C 16.429688 -14.222656 16.984375 -15.578125 16.984375 -17.171875 C 16.984375 -18.753906 16.421875 -20.097656 15.296875 -21.203125 C 14.140625 -22.304688 12.757812 -22.859375 11.15625 -22.859375 C 9.507812 -22.859375 8.117188 -22.242188 6.984375 -21.015625 C 5.773438 -19.734375 5.242188 -18.316406 5.390625 -16.765625 L 2.765625 -16.765625 C 2.671875 -19.179688 3.460938 -21.238281 5.140625 -22.9375 C 6.804688 -24.664062 8.847656 -25.53125 11.265625 -25.53125 C 13.578125 -25.53125 15.582031 -24.710938 17.28125 -23.078125 C 18.9375 -21.453125 19.765625 -19.472656 19.765625 -17.140625 C 19.765625 -14.847656 18.953125 -12.890625 17.328125 -11.265625 L 8.5625 -2.578125 L 20.015625 -2.578125 L 20.015625 0 Z M 2.328125 0 "/></g></g></g><g fill="#545454" fill-opacity="1"><g transform="translate(37.502916, 34.279884)"><g><path d="M 18.65625 -8.5 L 18.65625 -7.125 L 4.359375 -7.125 C 4.609375 -5.726562 5.285156 -4.582031 6.390625 -3.6875 C 7.523438 -2.78125 8.78125 -2.328125 10.15625 -2.328125 C 11.09375 -2.328125 11.992188 -2.546875 12.859375 -2.984375 C 13.691406 -3.410156 14.390625 -4.003906 14.953125 -4.765625 L 17.921875 -4.765625 C 17.222656 -3.210938 16.1875 -1.992188 14.8125 -1.109375 C 13.40625 -0.191406 11.988281 0.265625 10.5625 0.265625 C 9.113281 0.265625 7.882812 0.0390625 6.875 -0.40625 C 5.832031 -0.851562 4.929688 -1.457031 4.171875 -2.21875 C 2.492188 -3.84375 1.65625 -5.835938 1.65625 -8.203125 C 1.65625 -10.535156 2.492188 -12.539062 4.171875 -14.21875 C 5.828125 -15.875 7.820312 -16.703125 10.15625 -16.703125 C 12.425781 -16.703125 14.410156 -15.898438 16.109375 -14.296875 C 17.804688 -12.671875 18.65625 -10.738281 18.65625 -8.5 Z M 15.921875 -9.34375 C 15.628906 -10.71875 14.9375 -11.863281 13.84375 -12.78125 C 12.757812 -13.664062 11.53125 -14.109375 10.15625 -14.109375 C 8.039062 -14.109375 6.378906 -13.160156 5.171875 -11.265625 C 4.796875 -10.671875 4.535156 -10.03125 4.390625 -9.34375 Z M 15.921875 -9.34375 "/></g></g></g><g fill="#545454" fill-opacity="1"><g transform="translate(54.307495, 34.279884)"><g><path d="M 13.78125 -7.171875 L 1.40625 -7.171875 L 1.40625 -9.265625 L 13.78125 -9.265625 Z M 13.78125 -7.171875 "/></g></g></g><g fill="#545454" fill-opacity="1"><g transform="translate(66.125763, 34.279884)"><g><path d="M 22.265625 -12.5625 C 22.265625 -10.738281 21.9375 -9.0625 21.28125 -7.53125 C 20.582031 -5.976562 19.65625 -4.648438 18.5 -3.546875 C 17.34375 -2.441406 15.976562 -1.578125 14.40625 -0.953125 C 12.832031 -0.316406 11.144531 0 9.34375 0 L 2.765625 0 L 2.765625 -25.125 L 9.34375 -25.125 C 11.144531 -25.125 12.832031 -24.8125 14.40625 -24.1875 C 15.976562 -23.550781 17.34375 -22.679688 18.5 -21.578125 C 19.65625 -20.460938 20.582031 -19.144531 21.28125 -17.625 C 21.9375 -16.070312 22.265625 -14.382812 22.265625 -12.5625 Z M 19.765625 -12.5625 C 19.765625 -15.414062 18.753906 -17.800781 16.734375 -19.71875 C 14.765625 -21.59375 12.328125 -22.53125 9.421875 -22.53125 L 5.359375 -22.53125 L 5.359375 -2.578125 L 9.421875 -2.578125 C 12.328125 -2.578125 14.765625 -3.515625 16.734375 -5.390625 C 18.753906 -7.316406 19.765625 -9.707031 19.765625 -12.5625 Z M 19.765625 -12.5625 "/></g></g></g><g fill="#545454" fill-opacity="1"><g transform="translate(86.734707, 34.279884)"><g><path d="M 15.703125 -8.125 C 15.703125 -9.695312 15.160156 -11.078125 14.078125 -12.265625 C 12.960938 -13.441406 11.59375 -14.03125 9.96875 -14.03125 C 8.34375 -14.03125 6.988281 -13.441406 5.90625 -12.265625 C 4.800781 -11.078125 4.25 -9.695312 4.25 -8.125 C 4.25 -6.550781 4.800781 -5.171875 5.90625 -3.984375 C 6.988281 -2.804688 8.34375 -2.21875 9.96875 -2.21875 C 11.59375 -2.21875 12.960938 -2.804688 14.078125 -3.984375 C 15.160156 -5.171875 15.703125 -6.550781 15.703125 -8.125 Z M 18.28125 0 L 15.703125 0 L 15.703125 -2.765625 C 15.554688 -2.566406 15.40625 -2.382812 15.25 -2.21875 C 13.695312 -0.488281 11.800781 0.375 9.5625 0.375 C 7.320312 0.375 5.441406 -0.488281 3.921875 -2.21875 C 2.410156 -3.894531 1.65625 -5.863281 1.65625 -8.125 C 1.65625 -10.394531 2.410156 -12.363281 3.921875 -14.03125 C 5.441406 -15.757812 7.320312 -16.625 9.5625 -16.625 C 11.800781 -16.625 13.695312 -15.757812 15.25 -14.03125 C 15.40625 -13.863281 15.554688 -13.679688 15.703125 -13.484375 L 15.703125 -16.25 L 18.28125 -16.25 Z M 18.28125 0 "/></g></g></g><g fill="#545454" fill-opacity="1"><g transform="translate(104.462672, 34.279884)"><g><path d="M 0.734375 -13.84375 L 0.734375 -16.25 L 4.796875 -16.25 L 4.796875 -22.5625 L 7.390625 -22.5625 L 7.390625 -16.25 L 11.40625 -16.25 L 11.40625 -13.84375 L 7.390625 -13.84375 L 7.390625 0 L 4.796875 0 L 4.796875 -13.84375 Z M 0.734375 -13.84375 "/></g></g></g><g fill="#545454" fill-opacity="1"><g transform="translate(113.289156, 34.279884)"><g><path d="M 15.703125 -8.125 C 15.703125 -9.695312 15.160156 -11.078125 14.078125 -12.265625 C 12.960938 -13.441406 11.59375 -14.03125 9.96875 -14.03125 C 8.34375 -14.03125 6.988281 -13.441406 5.90625 -12.265625 C 4.800781 -11.078125 4.25 -9.695312 4.25 -8.125 C 4.25 -6.550781 4.800781 -5.171875 5.90625 -3.984375 C 6.988281 -2.804688 8.34375 -2.21875 9.96875 -2.21875 C 11.59375 -2.21875 12.960938 -2.804688 14.078125 -3.984375 C 15.160156 -5.171875 15.703125 -6.550781 15.703125 -8.125 Z M 18.28125 0 L 15.703125 0 L 15.703125 -2.765625 C 15.554688 -2.566406 15.40625 -2.382812 15.25 -2.21875 C 13.695312 -0.488281 11.800781 0.375 9.5625 0.375 C 7.320312 0.375 5.441406 -0.488281 3.921875 -2.21875 C 2.410156 -3.894531 1.65625 -5.863281 1.65625 -8.125 C 1.65625 -10.394531 2.410156 -12.363281 3.921875 -14.03125 C 5.441406 -15.757812 7.320312 -16.625 9.5625 -16.625 C 11.800781 -16.625 13.695312 -15.757812 15.25 -14.03125 C 15.40625 -13.863281 15.554688 -13.679688 15.703125 -13.484375 L 15.703125 -16.25 L 18.28125 -16.25 Z M 18.28125 0 "/></g></g></g></g></g></svg>