<svg role="img" viewBox="0 0 24 24" xmlns="http://www.w3.org/2000/svg" id="Duckdb--Streamline-Simple-Icons" height="24" width="24"><desc>Duckdb Streamline Icon: https://streamlinehq.com</desc><title>DuckDB</title><path d="M12 0C5.363 0 0 5.363 0 12s5.363 12 12 12 12 -5.363 12 -12S18.637 0 12 0zM9.502 7.03a4.974 4.974 0 0 1 4.97 4.97 4.974 4.974 0 0 1 -4.97 4.97A4.974 4.974 0 0 1 4.532 12a4.974 4.974 0 0 1 4.97 -4.97zm6.563 3.183h2.351c0.98 0 1.787 0.782 1.787 1.762s-0.807 1.789 -1.787 1.789h-2.351v-3.551z" fill="#000000" stroke-width="1"></path></svg>