<!DOCTYPE svg PUBLIC "-//W3C//DTD SVG 1.1//EN" "http://www.w3.org/Graphics/SVG/1.1/DTD/svg11.dtd">
<!-- Uploaded to: SVG Repo, www.svgrepo.com, Transformed by: SVG Repo Mixer Tools -->
<svg height="800px" width="800px" version="1.1" id="Capa_1" xmlns="http://www.w3.org/2000/svg" xmlns:xlink="http://www.w3.org/1999/xlink" viewBox="0 0 44.103 44.103" xml:space="preserve" fill="#ffffff" stroke="#ffffff">
<g id="SVGRepo_bgCarrier" stroke-width="0"/>
<g id="SVGRepo_tracerCarrier" stroke-linecap="round" stroke-linejoin="round"/>
<g id="SVGRepo_iconCarrier"> <g> <g> <path style="fill:#ffffff;" d="M5.125,3.439v8.655c0,0,0,0.45,0,1.005s0.013,1.005,0.029,1.005s1.315,1.283,3.449,1.852 c3.087,0.823,7.959,1.355,13.448,1.355S32.412,16.78,35.5,15.956c2.135-0.569,3.433-1.852,3.449-1.852s0.029-0.45,0.029-1.005 v-1.005V3.439C38.978,1.54,31.399,0,22.051,0C12.703,0,5.125,1.54,5.125,3.439z"/> <path style="fill:#ffffff;" d="M8.603,20.956c-2.135-0.569-3.433-1.852-3.449-1.852s-0.029,1.791-0.029,4v0.655 c0,2.209,0.013,4,0.029,4s1.315,1.283,3.449,1.852c3.087,0.823,7.959,1.355,13.448,1.355s10.361-0.531,13.448-1.355 c2.135-0.569,3.433-1.852,3.449-1.852s0.029-1.791,0.029-4v-0.655c0-2.209-0.013-4-0.029-4s-1.315,1.283-3.449,1.852 c-3.087,0.823-7.959,1.355-13.448,1.355C16.562,22.31,11.691,21.779,8.603,20.956z"/> <path style="fill:#ffffff;" d="M8.603,34.093c-2.135-0.569-3.433-1.852-3.449-1.852s-0.029,1.791-0.029,4v0.655 c0,2.209,0.013,4,0.029,4s1.315,1.283,3.449,1.852c3.087,0.823,7.959,1.355,13.448,1.355s10.361-0.531,13.448-1.355 c2.135-0.569,3.433-1.852,3.449-1.852s0.029-1.791,0.029-4v-0.655c0-2.209-0.013-4-0.029-4s-1.315,1.283-3.449,1.852 c-3.087,0.823-7.959,1.355-13.448,1.355C16.562,35.447,11.691,34.916,8.603,34.093z"/> </g> </g> </g>
</svg>