<!DOCTYPE svg PUBLIC "-//W3C//DTD SVG 1.1//EN" "http://www.w3.org/Graphics/SVG/1.1/DTD/svg11.dtd">
<!-- Uploaded to: SVG Repo, www.svgrepo.com, Transformed by: SVG Repo Mixer Tools -->
<svg width="800px" height="800px" viewBox="0 0 24 24" xmlns="http://www.w3.org/2000/svg" fill="#ffffff" stroke="#ffffff" stroke-width="0.00024000000000000003">
<g id="SVGRepo_bgCarrier" stroke-width="0"/>
<g id="SVGRepo_tracerCarrier" stroke-linecap="round" stroke-linejoin="round" stroke="#CCCCCC" stroke-width="0.24000000000000005"/>
<g id="SVGRepo_iconCarrier">
<path d="M21 8h2v14H7v-2h1v1h14V9h-1zm-1 11V5h-2v1h1v12H5v-1H4v2zM1 16V2h16v14zm9-1v-2H5v2zm0-8H5v2h5zm-5 3v2h5v-2zm11 3h-5v2h5zm0-3h-5v2h5zm0-3h-5v2h5zM2 6h14V3H2zm0 3h2V7H2zm0 3h2v-2H2zm0 3h2v-2H2z"/>
<path fill="none" d="M0 0h24v24H0z"/>
</g>
</svg>