<svg xmlns="http://www.w3.org/2000/svg" xmlns:xlink="http://www.w3.org/1999/xlink" width="550" zoomAndPan="magnify" viewBox="0 0 412.5 149.999998" height="200" preserveAspectRatio="xMidYMid meet" version="1.0"><defs><g/><clipPath id="edf620751a"><path d="M 1 0.0898438 L 122.851562 0.0898438 L 122.851562 137.921875 L 1 137.921875 Z M 1 0.0898438 " clip-rule="nonzero"/></clipPath><clipPath id="1dda6232cc"><rect x="0" width="286" y="0" height="97"/></clipPath></defs><g clip-path="url(#edf620751a)"><path fill="#545454" d="M 53.300781 128.847656 C 53.292969 128.96875 53.261719 129.085938 53.261719 129.210938 C 53.261719 133.902344 57.082031 137.722656 61.777344 137.722656 C 66.472656 137.722656 70.289062 133.902344 70.289062 129.210938 C 70.289062 127.789062 69.902344 126.46875 69.28125 125.285156 L 106.851562 103.609375 C 108.363281 105.984375 111.003906 107.578125 114.023438 107.578125 C 118.714844 107.578125 122.535156 103.757812 122.535156 99.066406 C 122.535156 95.792969 120.65625 92.980469 117.941406 91.554688 L 117.941406 46.257812 C 120.65625 44.835938 122.535156 42.019531 122.535156 38.746094 C 122.535156 34.054688 118.714844 30.238281 114.023438 30.238281 C 110.996094 30.238281 108.347656 31.839844 106.839844 34.226562 L 69.273438 12.550781 C 69.898438 11.363281 70.289062 10.035156 70.289062 8.601562 C 70.289062 3.910156 66.46875 0.0898438 61.777344 0.0898438 C 57.085938 0.0898438 53.261719 3.90625 53.261719 8.601562 C 53.261719 8.726562 53.292969 8.84375 53.300781 8.96875 L 14.097656 31.589844 C 12.773438 30.742188 11.210938 30.238281 9.53125 30.238281 C 4.835938 30.238281 1.015625 34.054688 1.015625 38.746094 C 1.015625 42.019531 2.894531 44.835938 5.613281 46.257812 L 5.613281 91.554688 C 2.894531 92.980469 1.015625 95.792969 1.015625 99.066406 C 1.015625 103.757812 4.835938 107.578125 9.53125 107.578125 C 11.210938 107.578125 12.773438 107.070312 14.09375 106.222656 Z M 57.210938 15.757812 C 58.445312 16.546875 59.894531 17.019531 61.449219 17.078125 L 61.449219 38.191406 L 39.902344 25.75 L 57.214844 15.757812 Z M 39.921875 112.078125 L 61.449219 99.648438 L 61.449219 120.734375 C 59.894531 120.792969 58.445312 121.261719 57.210938 122.050781 Z M 35.980469 109.804688 L 35.980469 84.570312 L 61.125 99.085938 L 39.269531 111.703125 L 35.980469 109.808594 Z M 13.449219 67.035156 L 35.328125 54.40625 L 35.328125 83.4375 L 13.449219 70.808594 Z M 54.289062 72.867188 L 35.980469 83.4375 L 35.980469 54.402344 L 54.277344 64.96875 C 53.652344 66.152344 53.261719 67.476562 53.261719 68.90625 C 53.261719 70.34375 53.65625 71.679688 54.289062 72.867188 Z M 54.601562 73.441406 C 56.054688 75.734375 58.566406 77.273438 61.449219 77.382812 L 61.449219 98.519531 L 36.3125 84.003906 Z M 70.25 68.542969 L 87.570312 58.542969 L 87.570312 83.441406 L 69.261719 72.867188 C 69.894531 71.679688 70.285156 70.34375 70.285156 68.90625 C 70.285156 68.78125 70.253906 68.664062 70.25 68.542969 Z M 54.585938 64.394531 L 36.308594 53.835938 L 61.449219 39.324219 L 61.449219 60.429688 C 58.554688 60.542969 56.039062 62.089844 54.585938 64.394531 Z M 18.003906 38.382812 L 35.328125 28.386719 L 35.328125 53.265625 L 17.023438 42.699219 C 17.652344 41.511719 18.042969 40.179688 18.042969 38.746094 C 18.042969 38.621094 18.011719 38.507812 18.003906 38.382812 Z M 16.710938 43.273438 L 35 53.835938 L 13.445312 66.28125 L 13.445312 46.257812 C 14.777344 45.5625 15.90625 44.539062 16.710938 43.273438 Z M 35.003906 84.003906 L 16.722656 94.558594 C 15.921875 93.285156 14.789062 92.257812 13.449219 91.554688 L 13.449219 71.558594 Z M 17.03125 95.136719 L 35.324219 84.574219 L 35.324219 109.429688 L 18.003906 99.433594 C 18.007812 99.308594 18.039062 99.195312 18.039062 99.070312 C 18.039062 97.644531 17.652344 96.320312 17.03125 95.140625 Z M 62.101562 77.382812 C 64.988281 77.273438 67.496094 75.734375 68.953125 73.441406 L 87.246094 84.007812 L 62.105469 98.519531 L 62.105469 77.386719 Z M 88.226562 58.164062 L 91.480469 56.285156 L 110.105469 67.035156 L 110.105469 70.804688 L 88.226562 83.4375 Z M 109.460938 45.910156 C 109.664062 46.039062 109.886719 46.144531 110.105469 46.257812 L 110.105469 66.28125 L 92.136719 55.90625 Z M 66.339844 61.75 C 65.105469 60.960938 63.65625 60.488281 62.101562 60.429688 L 62.101562 39.324219 L 83.644531 51.761719 Z M 61.121094 38.753906 L 35.976562 53.273438 L 35.976562 28.011719 L 39.242188 26.128906 L 61.117188 38.757812 Z M 87.574219 84.566406 L 87.574219 113.601562 L 62.429688 99.085938 Z M 110.105469 71.5625 L 110.105469 91.554688 C 108.765625 92.257812 107.632812 93.285156 106.832031 94.558594 L 88.550781 84.003906 L 110.105469 71.558594 Z M 84.296875 51.382812 L 62.425781 38.757812 L 87.570312 24.242188 L 87.570312 49.496094 Z M 62.101562 120.734375 L 62.101562 99.652344 L 87.246094 114.164062 L 68.96875 124.710938 C 67.515625 122.398438 64.996094 120.847656 62.101562 120.734375 Z M 88.226562 113.597656 L 88.226562 84.570312 L 106.519531 95.132812 C 105.894531 96.316406 105.507812 97.640625 105.507812 99.0625 C 105.507812 100.503906 105.902344 101.839844 106.535156 103.03125 L 88.222656 113.597656 Z M 105.546875 39.117188 L 88.222656 49.117188 L 88.222656 24.242188 L 106.523438 34.800781 C 105.894531 35.988281 105.507812 37.316406 105.507812 38.746094 C 105.507812 38.875 105.539062 38.992188 105.542969 39.117188 Z M 87.246094 23.675781 L 62.101562 38.191406 L 62.101562 17.078125 C 64.992188 16.964844 67.503906 15.421875 68.957031 13.125 Z M 87.246094 23.675781 " fill-opacity="1" fill-rule="nonzero"/></g><g transform="matrix(1, 0, 0, 1, 122, 26)"><g clip-path="url(#1dda6232cc)"><g fill="#545454" fill-opacity="1"><g transform="translate(1.622939, 74.579025)"><g><path d="M 40.390625 -18.390625 L 40.390625 -15.4375 L 9.4375 -15.4375 C 9.96875 -12.394531 11.4375 -9.914062 13.84375 -8 C 16.289062 -6.019531 19.007812 -5.03125 22 -5.03125 C 24.019531 -5.03125 25.960938 -5.515625 27.828125 -6.484375 C 29.640625 -7.390625 31.160156 -8.664062 32.390625 -10.3125 L 38.796875 -10.3125 C 37.296875 -6.957031 35.054688 -4.320312 32.078125 -2.40625 C 29.035156 -0.425781 25.96875 0.5625 22.875 0.5625 C 19.726562 0.5625 17.0625 0.0820312 14.875 -0.875 C 12.632812 -1.832031 10.6875 -3.140625 9.03125 -4.796875 C 5.40625 -8.316406 3.59375 -12.632812 3.59375 -17.75 C 3.59375 -22.820312 5.40625 -27.171875 9.03125 -30.796875 C 12.601562 -34.367188 16.925781 -36.15625 22 -36.15625 C 26.90625 -36.15625 31.195312 -34.421875 34.875 -30.953125 C 38.550781 -27.429688 40.390625 -23.242188 40.390625 -18.390625 Z M 34.46875 -20.234375 C 33.832031 -23.222656 32.34375 -25.703125 30 -27.671875 C 27.644531 -29.585938 24.976562 -30.546875 22 -30.546875 C 17.40625 -30.546875 13.804688 -28.492188 11.203125 -24.390625 C 10.398438 -23.109375 9.835938 -21.722656 9.515625 -20.234375 Z M 34.46875 -20.234375 "/></g></g></g><g fill="#545454" fill-opacity="1"><g transform="translate(38.000754, 74.579025)"><g><path d="M 5.03125 0 L 33.1875 -28.390625 C 35.59375 -30.796875 36.796875 -33.726562 36.796875 -37.1875 C 36.796875 -40.601562 35.566406 -43.507812 33.109375 -45.90625 C 30.609375 -48.3125 27.625 -49.515625 24.15625 -49.515625 C 20.582031 -49.515625 17.566406 -48.179688 15.109375 -45.515625 C 12.503906 -42.742188 11.359375 -39.675781 11.671875 -36.3125 L 6 -36.3125 C 5.78125 -41.539062 7.488281 -45.992188 11.125 -49.671875 C 14.75 -53.398438 19.171875 -55.265625 24.390625 -55.265625 C 29.398438 -55.265625 33.75 -53.503906 37.4375 -49.984375 C 41.007812 -46.472656 42.796875 -42.179688 42.796875 -37.109375 C 42.796875 -32.148438 41.035156 -27.910156 37.515625 -24.390625 L 18.5625 -5.59375 L 43.34375 -5.59375 L 43.34375 0 Z M 5.03125 0 "/></g></g></g><g fill="#545454" fill-opacity="1"><g transform="translate(79.975521, 74.579025)"><g><path d="M 40.390625 -18.390625 L 40.390625 -15.4375 L 9.4375 -15.4375 C 9.96875 -12.394531 11.4375 -9.914062 13.84375 -8 C 16.289062 -6.019531 19.007812 -5.03125 22 -5.03125 C 24.019531 -5.03125 25.960938 -5.515625 27.828125 -6.484375 C 29.640625 -7.390625 31.160156 -8.664062 32.390625 -10.3125 L 38.796875 -10.3125 C 37.296875 -6.957031 35.054688 -4.320312 32.078125 -2.40625 C 29.035156 -0.425781 25.96875 0.5625 22.875 0.5625 C 19.726562 0.5625 17.0625 0.0820312 14.875 -0.875 C 12.632812 -1.832031 10.6875 -3.140625 9.03125 -4.796875 C 5.40625 -8.316406 3.59375 -12.632812 3.59375 -17.75 C 3.59375 -22.820312 5.40625 -27.171875 9.03125 -30.796875 C 12.601562 -34.367188 16.925781 -36.15625 22 -36.15625 C 26.90625 -36.15625 31.195312 -34.421875 34.875 -30.953125 C 38.550781 -27.429688 40.390625 -23.242188 40.390625 -18.390625 Z M 34.46875 -20.234375 C 33.832031 -23.222656 32.34375 -25.703125 30 -27.671875 C 27.644531 -29.585938 24.976562 -30.546875 22 -30.546875 C 17.40625 -30.546875 13.804688 -28.492188 11.203125 -24.390625 C 10.398438 -23.109375 9.835938 -21.722656 9.515625 -20.234375 Z M 34.46875 -20.234375 "/></g></g></g><g fill="#545454" fill-opacity="1"><g transform="translate(116.353335, 74.579025)"><g><path d="M 29.828125 -15.515625 L 3.046875 -15.515625 L 3.046875 -20.078125 L 29.828125 -20.078125 Z M 29.828125 -15.515625 "/></g></g></g><g fill="#545454" fill-opacity="1"><g transform="translate(141.937004, 74.579025)"><g><path d="M 48.234375 -27.1875 C 48.234375 -23.25 47.515625 -19.625 46.078125 -16.3125 C 44.578125 -12.957031 42.578125 -10.078125 40.078125 -7.671875 C 37.566406 -5.273438 34.601562 -3.410156 31.1875 -2.078125 C 27.78125 -0.691406 24.128906 0 20.234375 0 L 6 0 L 6 -54.390625 L 20.234375 -54.390625 C 24.128906 -54.390625 27.78125 -53.722656 31.1875 -52.390625 C 34.601562 -51.003906 37.566406 -49.109375 40.078125 -46.703125 C 42.578125 -44.304688 44.578125 -41.457031 46.078125 -38.15625 C 47.515625 -34.789062 48.234375 -31.132812 48.234375 -27.1875 Z M 42.796875 -27.1875 C 42.796875 -33.375 40.609375 -38.550781 36.234375 -42.71875 C 31.960938 -46.769531 26.679688 -48.796875 20.390625 -48.796875 L 11.59375 -48.796875 L 11.59375 -5.59375 L 20.390625 -5.59375 C 26.679688 -5.59375 31.960938 -7.617188 36.234375 -11.671875 C 40.609375 -15.835938 42.796875 -21.007812 42.796875 -27.1875 Z M 42.796875 -27.1875 "/></g></g></g><g fill="#545454" fill-opacity="1"><g transform="translate(186.550342, 74.579025)"><g><path d="M 34 -17.59375 C 34 -21.007812 32.820312 -24 30.46875 -26.5625 C 28.070312 -29.113281 25.113281 -30.390625 21.59375 -30.390625 C 18.070312 -30.390625 15.140625 -29.113281 12.796875 -26.5625 C 10.398438 -24 9.203125 -21.007812 9.203125 -17.59375 C 9.203125 -14.1875 10.398438 -11.203125 12.796875 -8.640625 C 15.140625 -6.078125 18.070312 -4.796875 21.59375 -4.796875 C 25.113281 -4.796875 28.070312 -6.078125 30.46875 -8.640625 C 32.820312 -11.203125 34 -14.1875 34 -17.59375 Z M 39.59375 0 L 34 0 L 34 -6 C 33.675781 -5.570312 33.351562 -5.171875 33.03125 -4.796875 C 29.675781 -1.066406 25.570312 0.796875 20.71875 0.796875 C 15.863281 0.796875 11.785156 -1.066406 8.484375 -4.796875 C 5.222656 -8.421875 3.59375 -12.6875 3.59375 -17.59375 C 3.59375 -22.5 5.222656 -26.765625 8.484375 -30.390625 C 11.785156 -34.128906 15.863281 -36 20.71875 -36 C 25.570312 -36 29.675781 -34.128906 33.03125 -30.390625 C 33.351562 -30.015625 33.675781 -29.613281 34 -29.1875 L 34 -35.1875 L 39.59375 -35.1875 Z M 39.59375 0 "/></g></g></g><g fill="#545454" fill-opacity="1"><g transform="translate(224.927061, 74.579025)"><g><path d="M 1.59375 -30 L 1.59375 -35.1875 L 10.390625 -35.1875 L 10.390625 -48.875 L 16 -48.875 L 16 -35.1875 L 24.71875 -35.1875 L 24.71875 -30 L 16 -30 L 16 0 L 10.390625 0 L 10.390625 -30 Z M 1.59375 -30 "/></g></g></g><g fill="#545454" fill-opacity="1"><g transform="translate(244.034248, 74.579025)"><g><path d="M 34 -17.59375 C 34 -21.007812 32.820312 -24 30.46875 -26.5625 C 28.070312 -29.113281 25.113281 -30.390625 21.59375 -30.390625 C 18.070312 -30.390625 15.140625 -29.113281 12.796875 -26.5625 C 10.398438 -24 9.203125 -21.007812 9.203125 -17.59375 C 9.203125 -14.1875 10.398438 -11.203125 12.796875 -8.640625 C 15.140625 -6.078125 18.070312 -4.796875 21.59375 -4.796875 C 25.113281 -4.796875 28.070312 -6.078125 30.46875 -8.640625 C 32.820312 -11.203125 34 -14.1875 34 -17.59375 Z M 39.59375 0 L 34 0 L 34 -6 C 33.675781 -5.570312 33.351562 -5.171875 33.03125 -4.796875 C 29.675781 -1.066406 25.570312 0.796875 20.71875 0.796875 C 15.863281 0.796875 11.785156 -1.066406 8.484375 -4.796875 C 5.222656 -8.421875 3.59375 -12.6875 3.59375 -17.59375 C 3.59375 -22.5 5.222656 -26.765625 8.484375 -30.390625 C 11.785156 -34.128906 15.863281 -36 20.71875 -36 C 25.570312 -36 29.675781 -34.128906 33.03125 -30.390625 C 33.351562 -30.015625 33.675781 -29.613281 34 -29.1875 L 34 -35.1875 L 39.59375 -35.1875 Z M 39.59375 0 "/></g></g></g></g></g></svg>