<!DOCTYPE svg PUBLIC "-//W3C//DTD SVG 1.1//EN" "http://www.w3.org/Graphics/SVG/1.1/DTD/svg11.dtd">
<!-- Uploaded to: SVG Repo, www.svgrepo.com, Transformed by: SVG Repo Mixer Tools -->
<svg version="1.1" id="Layer_1" xmlns="http://www.w3.org/2000/svg" xmlns:xlink="http://www.w3.org/1999/xlink" viewBox="0 0 440 440" xml:space="preserve" width="800px" height="800px" fill="#000000">
<g id="SVGRepo_bgCarrier" stroke-width="0"/>
<g id="SVGRepo_tracerCarrier" stroke-linecap="round" stroke-linejoin="round"/>
<g id="SVGRepo_iconCarrier"> <path style="fill:#E4C6A1;" d="M136,128v264h-16H80c4.8-6.4,8-15.2,8-24V128c0-12.8,11.2-24,24-24S136,115.2,136,128z"/> <path style="fill:#ffffff;" d="M304,16v72H112c-22.4,0-40,17.6-40,40v240c0,13.6-11.2,24-24,24s-24-10.4-24-24V16H304z"/> <path id="SVGCleanerId_0" style="fill:#ffffff;" d="M392,104H144c4.8,6.4,8,15.2,8,24v104.8V424h264v-32V128 C416,114.4,405.6,104,392,104z M232,392c0,4-4,8-8,8h-40c-4,0-8-4-8-8V280c0-4,4-8,8-8h40c4,0,8,4,8,8V392z M312,392c0,4-4,8-8,8 h-40c-4,0-8-4-8-8V256c0-4,4-8,8-8h40c4,0,8,4,8,8V392z M300.8,230.4c-3.2,2.4-8,2.4-10.4-0.8l-20-20L171.2,248l-5.6-15.2l104-40 c3.2-0.8,6.4-0.8,8.8,1.6l19.2,19.2l72-52l-20-10.4l7.2-14.4l32,16c2.4,1.6,4,4,4,6.4c0,0,0,0,0,0.8l0,0v40h-16v-24l-45.6,32 L300.8,230.4z M384,400h-40c-4,0-8-4-8-8V224c0-2.4,0.8-4,2.4-5.6s3.2-2.4,5.6-2.4h40c4,0,8,4,8,8v168C392,396,388,400,384,400z"/> <g> <path id="SVGCleanerId_0_1_" style="fill:#ffffff;" d="M392,104H144c4.8,6.4,8,15.2,8,24v104.8V424h264v-32V128 C416,114.4,405.6,104,392,104z M232,392c0,4-4,8-8,8h-40c-4,0-8-4-8-8V280c0-4,4-8,8-8h40c4,0,8,4,8,8V392z M312,392c0,4-4,8-8,8 h-40c-4,0-8-4-8-8V256c0-4,4-8,8-8h40c4,0,8,4,8,8V392z M300.8,230.4c-3.2,2.4-8,2.4-10.4-0.8l-20-20L171.2,248l-5.6-15.2l104-40 c3.2-0.8,6.4-0.8,8.8,1.6l19.2,19.2l72-52l-20-10.4l7.2-14.4l32,16c2.4,1.6,4,4,4,6.4c0,0,0,0,0,0.8l0,0v40h-16v-24l-45.6,32 L300.8,230.4z M384,400h-40c-4,0-8-4-8-8V224c0-2.4,0.8-4,2.4-5.6s3.2-2.4,5.6-2.4h40c4,0,8,4,8,8v168C392,396,388,400,384,400z"/> </g> <rect x="352" y="232" style="fill:#FF9900;" width="24" height="152"/> <rect x="272" y="264" style="fill:#2FB4C2;" width="24" height="120"/> <rect x="192" y="288" style="fill:#EE5656;" width="24" height="96"/> <g> <path style="fill:#000000;" d="M376,384V232h-24v152H376z M392,224v168c0,4-4,8-8,8h-40c-4,0-8-4-8-8V224c0-2.4,0.8-4,2.4-5.6 s3.2-2.4,5.6-2.4h40C388,216,392,220,392,224z"/> <path style="fill:#000000;" d="M270.4,209.6L171.2,248l-5.6-15.2l104-40c3.2-0.8,6.4-0.8,8.8,1.6l19.2,19.2l72-52l-20-10.4 l7.2-14.4l32,16c2.4,0.8,4,4,4,6.4c0,0,0,0,0,0.8l0,0v40h-16v-24l-45.6,32l-30.4,22.4c-3.2,2.4-8,2.4-10.4-0.8L270.4,209.6z"/> <path style="fill:#000000;" d="M296,384V264h-24v120H296z M312,256v136c0,4-4,8-8,8h-40c-4,0-8-4-8-8V256c0-4,4-8,8-8h40 C308,248,312,252,312,256z"/> <path style="fill:#000000;" d="M216,384v-96h-24v96H216z M232,280v112c0,4-4,8-8,8h-40c-4,0-8-4-8-8V280c0-4,4-8,8-8h40 C228,272,232,276,232,280z"/> <path style="fill:#000000;" d="M112,88h192V16H24v352c0,13.6,11.2,24,24,24s24-10.4,24-24V128C72,105.6,89.6,88,112,88z M424,440 H144c-4,0-8-4-8-8v-40V128c0-12.8-11.2-24-24-24s-24,11.2-24,24v240c0,8.8-3.2,17.6-8,24h40v16H48c-22.4,0-40-17.6-40-40V8 c0-4.8,3.2-8,8-8h296c4,0,8,3.2,8,8v80h72c22.4,0,40,17.6,40,40v304C432,436,428,440,424,440z M152,424h264v-32V128 c0-12.8-10.4-24-24-24H144c4.8,6.4,8,15.2,8,24v104.8V424z"/> </g> <g> <path style="fill:#D9CDC1;" d="M48,392c10.4,0,19.2-6.4,22.4-15.2C32,391.2,32,360,32,360L24,16v352C24,380.8,34.4,392,48,392z"/> <path style="fill:#D9CDC1;" d="M152,144l7.2,256.8c0,8,7.2,15.2,15.2,15.2h216c9.6,0,16.8-7.2,16.8-16.8L416,136v288H152V144z"/> </g> <path style="fill:#CC9966;" d="M127.2,109.6c-5.6-4.8-12.8-7.2-20.8-4.8c-11.2,2.4-17.6,12.8-17.6,24L88,336l8-201.6 c0-6.4,2.4-12.8,7.2-17.6S116,108,128,112C128,112,128,111.2,127.2,109.6z"/> </g>
</svg>