<!DOCTYPE svg PUBLIC "-//W3C//DTD SVG 1.1//EN" "http://www.w3.org/Graphics/SVG/1.1/DTD/svg11.dtd">
<!-- Uploaded to: SVG Repo, www.svgrepo.com, Transformed by: SVG Repo Mixer Tools -->
<svg version="1.1" id="Layer_1" xmlns="http://www.w3.org/2000/svg" xmlns:xlink="http://www.w3.org/1999/xlink" viewBox="0 0 495.984 495.984" xml:space="preserve" width="192px" height="192px" fill="#ffffff" stroke="#ffffff">
<g id="SVGRepo_bgCarrier" stroke-width="0"/>
<g id="SVGRepo_tracerCarrier" stroke-linecap="round" stroke-linejoin="round" stroke="#fcfcfc" stroke-width="22.815264"> <g> <polygon style="fill:#ffffff;" points="413.16,452 238.216,452 238.216,64 67.976,64 67.976,48 254.216,48 254.216,436 413.16,436 "/> <rect x="43.688" y="102.544" style="fill:#ffffff;" width="16" height="293.2"/> <rect x="436.264" y="102.544" style="fill:#ffffff;" width="16" height="293.2"/> </g> <g> <circle style="fill:#ffffff;" cx="51.688" cy="51.184" r="51.184"/> <circle style="fill:#ffffff;" cx="51.688" cy="444.8" r="51.184"/> <circle style="fill:#ffffff;" cx="444.296" cy="51.184" r="51.184"/> <circle style="fill:#ffffff;" cx="444.296" cy="444.8" r="51.184"/> </g> </g>
<g id="SVGRepo_iconCarrier"> <g> <polygon style="fill:#ffffff;" points="413.16,452 238.216,452 238.216,64 67.976,64 67.976,48 254.216,48 254.216,436 413.16,436 "/> <rect x="43.688" y="102.544" style="fill:#ffffff;" width="16" height="293.2"/> <rect x="436.264" y="102.544" style="fill:#ffffff;" width="16" height="293.2"/> </g> <g> <circle style="fill:#ffffff;" cx="51.688" cy="51.184" r="51.184"/> <circle style="fill:#ffffff;" cx="51.688" cy="444.8" r="51.184"/> <circle style="fill:#ffffff;" cx="444.296" cy="51.184" r="51.184"/> <circle style="fill:#ffffff;" cx="444.296" cy="444.8" r="51.184"/> </g> </g>
</svg>